<?xml version="1.0" encoding="UTF-8" standalone="no"?>
<!DOCTYPE svg PUBLIC "-//W3C//DTD SVG 1.1//EN"
 "http://www.w3.org/Graphics/SVG/1.1/DTD/svg11.dtd">
<!-- Generated by graphviz version 2.44.0 (20200408.0750)
 -->
<!-- Title: main Pages: 1 -->
<svg width="153pt" height="66pt"
 viewBox="0.00 0.00 153.00 66.00" xmlns="http://www.w3.org/2000/svg" xmlns:xlink="http://www.w3.org/1999/xlink">
<g id="graph0" class="graph" transform="scale(1 1) rotate(0) translate(4 62)">
<title>main</title>
<polygon fill="white" stroke="transparent" points="-4,4 -4,-62 149,-62 149,4 -4,4"/>
<!-- Node1 -->
<g id="node1" class="node">
<title>Node1</title>
<g id="a_node1"><a xlink:title=" ">
<polygon fill="#bfbfbf" stroke="black" points="0,-19.5 0,-38.5 38,-38.5 38,-19.5 0,-19.5"/>
<text text-anchor="middle" x="19" y="-26.5" font-family="Helvetica,sans-Serif" font-size="10.00">main</text>
</a>
</g>
</g>
<!-- Node2 -->
<g id="node2" class="node">
<title>Node2</title>
<g id="a_node2"><a target="_blank" xlink:href="http://en.cppreference.com/w/cpp/io/manip/endl.html#" xlink:title=" ">
<polygon fill="white" stroke="black" points="82.5,-38.5 82.5,-57.5 136.5,-57.5 136.5,-38.5 82.5,-38.5"/>
<text text-anchor="middle" x="109.5" y="-45.5" font-family="Helvetica,sans-Serif" font-size="10.00">std::endl</text>
</a>
</g>
</g>
<!-- Node1&#45;&gt;Node2 -->
<g id="edge1" class="edge">
<title>Node1&#45;&gt;Node2</title>
<path fill="none" stroke="midnightblue" d="M38.34,-32.94C48.21,-35.06 60.73,-37.74 72.45,-40.26"/>
<polygon fill="midnightblue" stroke="midnightblue" points="71.95,-43.73 82.47,-42.41 73.42,-36.89 71.95,-43.73"/>
</g>
<!-- Node3 -->
<g id="node3" class="node">
<title>Node3</title>
<g id="a_node3"><a xlink:href="../../d4/dcd/check__even__odd_8cpp.html#a47d35625fad361b7efeefff14aa8b9af" target="_top" xlink:title=" ">
<polygon fill="white" stroke="black" points="74,-0.5 74,-19.5 145,-19.5 145,-0.5 74,-0.5"/>
<text text-anchor="middle" x="109.5" y="-7.5" font-family="Helvetica,sans-Serif" font-size="10.00">is_odd_even</text>
</a>
</g>
</g>
<!-- Node1&#45;&gt;Node3 -->
<g id="edge2" class="edge">
<title>Node1&#45;&gt;Node3</title>
<path fill="none" stroke="midnightblue" d="M38.34,-25.06C45.77,-23.47 54.7,-21.55 63.67,-19.62"/>
<polygon fill="midnightblue" stroke="midnightblue" points="64.69,-22.99 73.73,-17.46 63.22,-16.14 64.69,-22.99"/>
</g>
</g>
</svg>
