<?xml version="1.0" encoding="UTF-8" standalone="no"?>
<!DOCTYPE svg PUBLIC "-//W3C//DTD SVG 1.1//EN"
 "http://www.w3.org/Graphics/SVG/1.1/DTD/svg11.dtd">
<!-- Generated by graphviz version 2.44.0 (20200408.0750)
 -->
<!-- Title: test Pages: 1 -->
<svg width="279pt" height="47pt"
 viewBox="0.00 0.00 279.00 47.00" xmlns="http://www.w3.org/2000/svg" xmlns:xlink="http://www.w3.org/1999/xlink">
<g id="graph0" class="graph" transform="scale(1 1) rotate(0) translate(4 43)">
<title>test</title>
<polygon fill="white" stroke="transparent" points="-4,4 -4,-43 275,-43 275,4 -4,4"/>
<!-- Node1 -->
<g id="node1" class="node">
<title>Node1</title>
<g id="a_node1"><a xlink:title=" ">
<polygon fill="#bfbfbf" stroke="black" points="0,-0.5 0,-19.5 33,-19.5 33,-0.5 0,-0.5"/>
<text text-anchor="middle" x="16.5" y="-7.5" font-family="Helvetica,sans-Serif" font-size="10.00">test</text>
</a>
</g>
</g>
<!-- Node2 -->
<g id="node2" class="node">
<title>Node2</title>
<g id="a_node2"><a xlink:href="../../dc/de7/sub__array__with__given__sum_8cpp.html#aefaeed0e43aef9eb508c6b04c391003d" target="_top" xlink:title=" ">
<polygon fill="white" stroke="black" points="69,-19.5 69,-38.5 181,-38.5 181,-19.5 69,-19.5"/>
<text text-anchor="middle" x="125" y="-26.5" font-family="Helvetica,sans-Serif" font-size="10.00">contiguous_sub_array</text>
</a>
</g>
</g>
<!-- Node1&#45;&gt;Node2 -->
<g id="edge1" class="edge">
<title>Node1&#45;&gt;Node2</title>
<path fill="none" stroke="midnightblue" d="M33.21,-12.8C40.84,-14.16 50.57,-15.9 60.79,-17.72"/>
<polygon fill="midnightblue" stroke="midnightblue" points="60.25,-21.18 70.71,-19.49 61.48,-14.29 60.25,-21.18"/>
</g>
<!-- Node3 -->
<g id="node3" class="node">
<title>Node3</title>
<g id="a_node3"><a target="_blank" xlink:href="http://en.cppreference.com/w/cpp/io/manip/endl.html#" xlink:title=" ">
<polygon fill="white" stroke="black" points="217,-0.5 217,-19.5 271,-19.5 271,-0.5 217,-0.5"/>
<text text-anchor="middle" x="244" y="-7.5" font-family="Helvetica,sans-Serif" font-size="10.00">std::endl</text>
</a>
</g>
</g>
<!-- Node1&#45;&gt;Node3 -->
<g id="edge3" class="edge">
<title>Node1&#45;&gt;Node3</title>
<path fill="none" stroke="midnightblue" d="M33.36,-10C69.11,-10 156.77,-10 206.68,-10"/>
<polygon fill="midnightblue" stroke="midnightblue" points="206.72,-13.5 216.72,-10 206.72,-6.5 206.72,-13.5"/>
</g>
<!-- Node2&#45;&gt;Node3 -->
<g id="edge2" class="edge">
<title>Node2&#45;&gt;Node3</title>
<path fill="none" stroke="midnightblue" d="M181.07,-20.06C189.83,-18.64 198.68,-17.2 206.85,-15.87"/>
<polygon fill="midnightblue" stroke="midnightblue" points="207.46,-19.32 216.77,-14.26 206.34,-12.41 207.46,-19.32"/>
</g>
</g>
</svg>
